<svg xmlns="http://www.w3.org/2000/svg" viewBox="0 0 512 512">
  <defs>
    <linearGradient id="grad" x1="0%" y1="0%" x2="100%" y2="100%">
      <stop offset="0%" stop-color="#006874" />
      <stop offset="100%" stop-color="#004e57" />
    </linearGradient>
    <linearGradient id="warm" x1="0%" y1="0%" x2="100%" y2="100%">
      <stop offset="0%" stop-color="#f59e0b" />
      <stop offset="100%" stop-color="#d97706" />
    </linearGradient>
  </defs>
  <rect width="512" height="512" rx="110" fill="url(#grad)"/>
  <!-- Coffee Cup Outline -->
  <path d="M128 176h216v128c0 48.6-39.4 88-88 88h-40c-48.6 0-88-39.4-88-88V176z" fill="#ffffff" fill-opacity="0.95"/>
  <!-- Handle -->
  <path d="M344 200h32c26.5 0 48 21.5 48 48s-21.5 48-48 48h-32v-96zm32 68c11 0 20-9 20-20s-9-20-20-20h-32v40h32z" fill="#ffffff" fill-opacity="0.95"/>
  <!-- Steam Curves -->
  <path d="M184 104c0 16-16 24-16 40m56-48c0 16-16 24-16 48m56-40c0 16-16 24-16 40" stroke="url(#warm)" stroke-width="14" stroke-linecap="round" fill="none"/>
  <!-- Saucer -->
  <path d="M112 416h248c8.8 0 16 7.2 16 16s-7.2 16-16 16H112c-8.8 0-16-7.2-16-16s7.2-16 16-16z" fill="#ffffff" fill-opacity="0.8"/>
</svg>
